<svg width="170" height="17" viewBox="0 0 170 17" fill="none" xmlns="http://www.w3.org/2000/svg">
<g clip-path="url(#clip0_1_69)">
<path d="M38.8014 7.70704C38.9939 7.70704 39.1588 7.59575 39.1588 7.34534C39.1588 7.09493 38.9664 6.98363 38.8014 6.98363C38.6364 6.98363 38.4439 7.09493 38.4439 7.34534C38.4164 7.59575 38.6089 7.70704 38.8014 7.70704ZM116.294 14.7185C114.012 16.3879 110.767 17 107.742 17C102.297 17 96.2197 14.9967 96.2197 8.48609C96.2197 1.94763 102.324 0.0278232 107.769 0.0278232C113.214 0.0278232 119.319 1.97545 119.319 8.51391C119.319 11.3797 118.109 13.383 116.294 14.7185ZM114.012 12.0753C114.369 10.4059 114.122 8.34697 113.434 6.45499C112.774 4.61866 111.702 2.94926 110.382 1.94763C109.337 1.16858 108.099 0.779051 106.807 0.779051C105.569 0.779051 104.387 1.16858 103.452 1.9198C101.939 3.14403 101.445 4.92471 101.445 6.81669C101.445 8.76432 102.022 10.8511 103.067 12.5483C104.332 14.6072 106.284 16.1375 108.759 16.1375C111.289 16.1375 113.462 14.6907 114.012 12.0753ZM21.4219 3.14403C21.4219 7.79051 21.3944 12.2979 21.3944 16.9444C19.9644 16.9444 18.7819 16.6105 17.4895 15.9984C16.2795 15.4141 15.0971 14.635 13.9971 13.8003L2.06244 4.81342V13.8282C2.06244 14.8298 2.30993 15.581 2.74992 16.4435H0C0.412488 15.581 0.659981 14.802 0.659981 13.8282V3.1162C0.659981 2.14239 0.412488 1.39116 0 0.528642H4.92235L20.0469 12.1309V3.14403C20.0469 2.14239 19.7994 1.41899 19.3319 0.528642H22.0543C21.6419 1.41899 21.4219 2.17021 21.4219 3.14403ZM91.9848 15.2471C92.6173 15.7758 92.9198 16.054 93.7172 16.221C92.8923 16.8331 92.1773 17 91.1323 17C88.7949 17 86.4025 16.1653 84.8625 14.3568L81.0126 10.0442C81.3426 9.90507 81.7001 9.79378 82.0301 9.65466C84.4775 8.7365 87.4474 7.62357 87.4474 4.6743C87.4474 1.61375 83.8725 1.39116 81.6176 1.39116H77.6302V13.9951C77.6302 14.9411 77.8502 15.6367 78.2352 16.4714H71.9929C72.3779 15.6367 72.5979 14.9411 72.5979 13.9951V3.00491C72.5979 2.05892 72.3779 1.36334 71.9929 0.528642H84.0925C86.7324 0.528642 92.5073 0.918167 92.5073 4.59084C92.5073 7.40098 88.7674 8.90344 86.5125 9.54337L89.7849 13.0769C90.4448 13.8282 91.2698 14.635 91.9848 15.2471ZM66.548 11.5745C66.548 12.9378 66.768 14.162 67.263 15.4141C66.328 15.581 65.3931 15.8036 64.4581 15.9984C62.2582 16.4992 60.0857 16.9722 57.7483 16.9722C55.0534 16.9722 52.0285 16.5548 49.6085 15.2471C46.9961 13.856 45.5112 11.5466 45.5662 8.51391C45.5937 5.6203 46.8586 3.61702 48.7011 2.28151C51.121 0.584288 54.5309 0 57.4733 0C60.0307 0 62.6982 0.222586 65.2281 0.639935L65.3381 0.667758L65.9431 3.70049C64.1281 2.00327 61.1582 0.862521 58.6833 0.862521C56.4833 0.862521 54.3659 1.53028 52.8809 2.97709C51.5885 4.22913 50.7635 6.06547 50.7635 8.54174C50.7635 10.5172 51.396 12.437 52.6884 13.9116C54.0084 15.3863 55.7684 16.1375 57.7483 16.1653C58.9033 16.1653 60.0307 15.9984 60.8557 15.4697C61.6532 14.9411 62.2032 14.0786 62.2032 12.6596V10.4059C62.2032 9.43208 61.9832 8.76432 61.5982 7.9018H67.263C66.713 9.0982 66.548 10.239 66.548 11.5745ZM30.0841 7.09493V6.12111H31.4041V5.59247H30.0841V4.64648H31.5966V4.11784H29.4791V7.65139H31.6241V7.12275H30.0841V7.09493ZM33.6865 7.70704C34.3465 7.70704 34.869 7.31751 34.869 6.64976C34.869 6.03764 34.429 5.75941 33.8515 5.56465C33.5215 5.45336 33.1915 5.31424 33.1915 4.98036C33.1915 4.72995 33.439 4.59084 33.7415 4.59084C34.0165 4.59084 34.264 4.6743 34.539 4.86907L34.7865 4.4239C34.429 4.17349 34.099 4.06219 33.714 4.06219C33.109 4.06219 32.614 4.39607 32.614 5.03601C32.614 5.59247 33.054 5.92635 33.604 6.12111C33.989 6.26023 34.319 6.39935 34.319 6.73322C34.319 7.03928 34.044 7.20622 33.714 7.20622C33.384 7.20622 33.054 7.0671 32.8065 6.84452L32.5315 7.31751C32.8065 7.5401 33.219 7.70704 33.6865 7.70704ZM38.1964 4.11784H35.694V4.6743H36.6289V7.62357H37.2339V4.6743H38.1689V4.11784H38.1964ZM161.805 0.528642C165.105 0.528642 170 1.39116 170 5.64812C170 9.90507 165.078 10.7398 161.805 10.7398H155.7V13.9673C155.7 14.9133 155.893 15.6088 156.305 16.4435H149.843C150.228 15.6088 150.448 14.9133 150.448 13.9673V3.00491C150.448 2.0311 150.256 1.39116 149.843 0.528642H161.805ZM155.7 9.8216H160.238C162.548 9.8216 164.858 8.09656 164.858 5.64812C164.858 2.81015 162.108 1.36334 159.605 1.36334H155.728V9.8216H155.7ZM144.481 3.06056L144.838 9.51555C144.976 11.9362 144.316 14.1342 142.143 15.4141C138.816 17.3617 129.659 17.4452 126.359 15.5254C124.186 14.2455 123.526 12.0475 123.664 9.62684L123.994 3.06056C124.049 2.11457 123.856 1.39116 123.499 0.528642H129.714C129.301 1.36334 129.054 2.14239 128.999 3.08838L128.614 11.4354C128.614 12.8543 129.219 13.9673 130.099 14.7463C132.106 16.4992 136.203 16.527 138.293 14.8576C139.283 14.0507 139.943 12.8543 139.943 11.2406L139.558 3.1162C139.503 2.17021 139.228 1.39116 138.816 0.556465H145.031C144.618 1.39116 144.426 2.11457 144.481 3.06056ZM28.7917 12.3257C28.7092 12.3257 28.5717 12.3257 28.4617 12.3257C28.5442 12.2422 28.5992 12.1588 28.6542 12.0753L29.2041 11.3241C29.5341 10.8789 29.6716 10.6285 29.6716 10.2946C29.6716 9.76596 29.2866 9.34861 28.6817 9.34861C28.2142 9.34861 27.8842 9.5712 27.6092 9.98854L28.0217 10.2946C28.1867 10.072 28.3792 9.90507 28.6542 9.90507C28.9291 9.90507 29.0941 10.0998 29.0941 10.3502C29.0941 10.5172 29.0116 10.6841 28.8192 10.9902L27.6092 12.6039V12.8265H29.7816V12.2979H28.7917V12.3257ZM38.7464 12.91C39.5163 12.91 39.9838 12.2144 39.9838 11.1293C39.9838 10.0442 39.5163 9.34861 38.7464 9.34861C37.9764 9.34861 37.5089 10.0164 37.5089 11.1293C37.5089 12.2422 37.9764 12.91 38.7464 12.91ZM38.7464 12.3813C38.3339 12.3813 38.1139 11.8805 38.1139 11.1293C38.1139 10.3781 38.3339 9.87725 38.7464 9.87725C39.1588 9.87725 39.3788 10.3781 39.3788 11.1293C39.4063 11.8805 39.1863 12.3813 38.7464 12.3813ZM35.3365 12.91C36.1064 12.91 36.5739 12.2144 36.5739 11.1293C36.5739 10.0442 36.1064 9.34861 35.3365 9.34861C34.5665 9.34861 34.099 10.0164 34.099 11.1293C34.0715 12.2422 34.539 12.91 35.3365 12.91ZM35.3365 12.3813C34.924 12.3813 34.704 11.8805 34.704 11.1293C34.704 10.3781 34.924 9.87725 35.3365 9.87725C35.7489 9.87725 35.9689 10.3781 35.9689 11.1293C35.9689 11.8805 35.7489 12.3813 35.3365 12.3813ZM31.8991 12.91C32.669 12.91 33.1365 12.2144 33.1365 11.1293C33.1365 10.0442 32.669 9.34861 31.8991 9.34861C31.1291 9.34861 30.6616 10.0164 30.6616 11.1293C30.6616 12.2422 31.1291 12.91 31.8991 12.91ZM31.8991 12.3813C31.4866 12.3813 31.2666 11.8805 31.2666 11.1293C31.2666 10.3781 31.4866 9.87725 31.8991 9.87725C32.3115 9.87725 32.5315 10.3781 32.5315 11.1293C32.559 11.8805 32.339 12.3813 31.8991 12.3813Z" fill="black"/>
</g>
<defs>
<clipPath id="clip0_1_69">
<rect width="170" height="17" fill="white"/>
</clipPath>
</defs>
</svg>
