<svg width="317" height="79" viewBox="0 0 317 79" fill="none" xmlns="http://www.w3.org/2000/svg">
<path fill-rule="evenodd" clip-rule="evenodd" d="M26.8827 7.83618C24.4983 7.81565 22.1309 8.24027 19.9018 9.08828C17.8327 9.87892 15.9644 11.1188 14.4311 12.7186C12.8378 14.4069 11.6206 16.4145 10.8599 18.6088C9.95732 21.1776 9.52021 23.8872 9.5692 26.6099C9.51758 29.275 9.91452 31.9298 10.7434 34.4629C11.4348 36.575 12.585 38.5076 14.1114 40.1216C15.6043 41.6596 17.4325 42.831 19.4529 43.5442C21.7528 44.3523 24.1777 44.7459 26.6149 44.7069C28.579 44.701 30.5399 44.5499 32.4818 44.2549C34.378 43.968 36.2469 43.523 38.0691 42.9245V50.9078C36.1965 51.4342 34.2911 51.8354 32.3653 52.1088C30.2616 52.3972 28.1405 52.5394 26.0171 52.5344C22.1699 52.6091 18.3408 51.9877 14.7142 50.7001C11.6479 49.5962 8.86308 47.8275 6.55916 45.5206C4.35098 43.2409 2.67233 40.5017 1.64282 37.4982C0.516446 34.1755 -0.037612 30.6853 0.00431933 27.1768C-0.0303173 23.5202 0.563348 19.8849 1.75933 16.4297C2.85756 13.2551 4.58208 10.3338 6.83042 7.83958C9.13573 5.35203 11.9593 3.40247 15.1011 2.12901C18.6761 0.689257 22.4997 -0.0304003 26.3529 0.0112618C28.3914 0.00172381 30.4275 0.14855 32.4436 0.450465C34.2022 0.699967 35.9341 1.11085 37.6176 1.67788V9.53855C35.777 8.94567 33.891 8.505 31.9785 8.22094C30.2915 7.96577 28.5879 7.83631 26.8818 7.83364L26.8827 7.83618ZM85.8508 26.2694C85.9029 23.5347 85.5198 20.8092 84.7157 18.1951C84.0735 16.0771 83.0065 14.1126 81.5799 12.4215C80.285 10.9138 78.6538 9.73224 76.8182 8.97253C72.9256 7.45744 68.6071 7.45744 64.7144 8.97253C62.8808 9.7356 61.2503 10.9166 59.9529 12.4215C58.5364 14.1194 57.4708 16.0818 56.8179 18.1951C55.3043 23.4754 55.3043 29.0753 56.8179 34.3556C57.4704 36.4614 58.5362 38.4156 59.9529 40.1037C61.2544 41.601 62.884 42.777 64.7144 43.5399C68.6004 45.0902 72.9322 45.0902 76.8182 43.5399C78.6506 42.7804 80.2809 41.6039 81.5799 40.1037C83.0066 38.4224 84.0739 36.4661 84.7157 34.3556C85.5187 31.7372 85.9018 29.0079 85.8508 26.2694ZM95.4123 26.2694C95.4549 29.8749 94.9013 33.4625 93.7738 36.8871C92.7611 39.9565 91.1271 42.7839 88.9739 45.1929C86.8188 47.5474 84.1705 49.396 81.2185 50.6064C74.4864 53.1725 67.0471 53.1725 60.3151 50.6064C57.3652 49.3924 54.7179 47.5443 52.5605 45.1929C50.4073 42.7839 48.7733 39.9565 47.7606 36.8871C45.5759 29.9773 45.5759 22.5607 47.7606 15.6509C48.7737 12.5814 50.4076 9.75375 52.5605 7.3442C54.7181 4.99338 57.3654 3.14591 60.3151 1.9324C67.0471 -0.633669 74.4864 -0.633669 81.2185 1.9324C84.1702 3.14255 86.8185 4.99049 88.9739 7.3442C91.1268 9.75375 92.7607 12.5814 93.7738 15.6509C94.9012 19.0757 95.4549 22.6637 95.4123 26.2694ZM136.936 24.487C140.564 29.6668 143.51 34.2609 145.774 38.2694H146.007C145.697 31.6812 145.554 26.8891 145.554 23.8793V0.948426H154.806V51.587H145.103L128.613 28.2705C125.722 24.2416 122.724 19.5601 119.619 14.226H119.385C119.695 20.4408 119.85 25.2505 119.85 28.6553V51.587H110.581V0.950114H120.298L136.931 24.4862L136.936 24.487ZM199.873 37.0556C199.926 35.9362 199.593 34.8328 198.929 33.9301C198.238 33.0869 197.359 32.4184 196.362 31.9783C195.19 31.4481 193.968 31.0372 192.714 30.7517C191.369 30.4419 189.949 30.1312 188.462 29.8214C186.557 29.4149 184.674 28.906 182.823 28.2969C181.122 27.7454 179.525 26.9109 178.101 25.8285C176.729 24.7613 175.617 23.3963 174.849 21.8364C173.986 19.9422 173.571 17.8741 173.637 15.7931C173.577 13.3873 174.058 10.9989 175.043 8.804C175.919 6.89741 177.216 5.21466 178.836 3.88245C180.506 2.55015 182.422 1.56246 184.475 0.976506C186.841 0.301661 189.293 -0.0246455 191.753 0.00785893C194.478 0.00836718 197.196 0.272052 199.871 0.795219C202.28 1.23218 204.637 1.92084 206.903 2.84995V10.794C204.464 9.81752 201.942 9.06093 199.369 8.5333C197.132 8.0863 194.857 7.85288 192.575 7.83618C189.533 7.83618 187.186 8.39144 185.533 9.50195C184.721 10.0473 184.066 10.7954 183.631 11.6721C183.197 12.5489 182.999 13.524 183.056 14.501C183.01 15.617 183.292 16.7221 183.868 17.6784C184.434 18.5312 185.191 19.2394 186.079 19.7459C187.089 20.3174 188.169 20.756 189.291 21.0508C190.505 21.3734 191.795 21.6841 193.148 21.9548C195.291 22.4087 197.34 22.9339 199.296 23.5303C201.149 24.0731 202.903 24.9106 204.491 26.0107C206.01 27.0705 207.243 28.491 208.079 30.1448C209.039 32.1854 209.494 34.4273 209.406 36.6811C209.465 39.125 208.949 41.5487 207.9 43.7561C206.897 45.7333 205.418 47.4298 203.597 48.693C201.552 50.0732 199.264 51.0551 196.855 51.587C194.002 52.2403 191.082 52.5568 188.156 52.5301C185.434 52.5325 182.719 52.2598 180.052 51.7164C177.738 51.2959 175.502 50.5246 173.42 49.4293V41.5984C175.763 42.6346 178.206 43.4267 180.71 43.9621C183.126 44.4577 185.586 44.7044 188.052 44.6984C189.492 44.7019 190.93 44.5808 192.349 44.3366C193.674 44.1261 194.959 43.7124 196.158 43.1101C197.242 42.5632 198.169 41.7496 198.853 40.7455C199.56 39.6464 199.916 38.3579 199.873 37.0513V37.0556ZM248.212 52.531C245.806 52.5577 243.405 52.2974 241.061 51.7555C239.095 51.3028 237.211 50.5492 235.475 49.5212C233.902 48.5883 232.507 47.3857 231.351 45.9683C230.196 44.5377 229.275 42.9333 228.621 41.2145C228.04 39.7051 227.643 38.1309 227.439 36.5262C227.182 34.6209 227.06 32.6998 227.074 30.7773V0.948426H236.342V29.9355C236.223 32.7944 236.656 35.6494 237.617 38.3443C238.421 40.3995 239.908 42.1149 241.826 43.202C243.85 44.1878 246.072 44.7001 248.323 44.7001C250.573 44.7001 252.795 44.1878 254.819 43.202C256.738 42.1149 258.224 40.3995 259.028 38.3443C259.989 35.6494 260.422 32.7944 260.303 29.9355V0.948426H269.563V30.7747C269.579 32.697 269.46 34.6181 269.205 36.5236C269.003 38.1295 268.603 39.7042 268.015 41.2119C267.361 42.9307 266.44 44.5352 265.286 45.9658C264.103 47.389 262.678 48.5917 261.077 49.5186C259.304 50.5452 257.386 51.2984 255.388 51.753C253.035 52.2933 250.626 52.5536 248.212 52.5284V52.531ZM293.328 0.949283V43.8225H316.992V51.587H284.06V0.950114L293.328 0.949283ZM180.899 69.9309C180.92 69.3287 180.82 68.7285 180.603 68.1663C180.44 67.7588 180.182 67.3967 179.849 67.1109C179.563 66.8682 179.228 66.6895 178.868 66.5865C178.025 66.3533 177.128 66.4041 176.317 66.7313C175.865 66.9144 175.445 67.1678 175.071 67.482V72.2554C175.196 72.3978 175.332 72.5304 175.477 72.6521C175.66 72.8078 175.86 72.943 176.072 73.0555C176.316 73.1876 176.572 73.294 176.837 73.373C177.593 73.585 178.398 73.5389 179.125 73.2419C179.503 73.0777 179.837 72.826 180.098 72.5074C180.372 72.175 180.574 71.79 180.693 71.3762C180.832 70.9065 180.9 70.4188 180.895 69.9291L180.899 69.9309ZM182.698 69.8159C182.715 70.5709 182.578 71.3214 182.297 72.0222C182.058 72.6054 181.699 73.1316 181.244 73.5662C180.813 73.9702 180.302 74.2785 179.744 74.4711C179.184 74.6699 178.595 74.7707 178.001 74.769C177.6 74.7751 177.199 74.7256 176.811 74.6217C176.506 74.538 176.212 74.4183 175.936 74.2651C175.727 74.1513 175.534 74.0114 175.36 73.8488C175.248 73.7445 175.145 73.6306 175.053 73.5084H175.019L174.656 74.5298H173.353V60.6232H175.073V66.2623H175.107C175.49 65.9098 175.938 65.6349 176.425 65.4528C176.976 65.2539 177.559 65.157 178.145 65.1668C178.467 65.1675 178.789 65.196 179.107 65.2519C179.457 65.3106 179.8 65.4106 180.127 65.5498C180.473 65.6947 180.8 65.8816 181.1 66.1065C181.419 66.3449 181.696 66.6356 181.919 66.9662C182.172 67.3395 182.364 67.7514 182.487 68.1859C182.636 68.7158 182.707 69.2646 182.699 69.8151L182.698 69.8159ZM201.745 69.9768C201.751 69.4664 201.67 68.9588 201.507 68.4753C201.361 68.0636 201.136 67.6847 200.843 67.3603C200.558 67.0584 200.209 66.8226 199.823 66.6691C199.414 66.508 198.978 66.4276 198.539 66.4325C198.097 66.4276 197.658 66.5079 197.247 66.6691C196.862 66.8206 196.516 67.0568 196.235 67.3603C195.94 67.6824 195.714 68.062 195.572 68.4753C195.254 69.4487 195.254 70.4981 195.572 71.4715C195.713 71.8826 195.939 72.2596 196.235 72.578C196.523 72.8801 196.875 73.1151 197.264 73.2666C198.091 73.581 199.004 73.581 199.832 73.2666C200.213 73.1106 200.558 72.876 200.843 72.578C201.136 72.2574 201.362 71.8811 201.507 71.4715C201.669 70.9902 201.75 70.4849 201.745 69.9768ZM203.539 69.9768C203.55 70.6458 203.432 71.3106 203.19 71.9345C202.964 72.5042 202.619 73.0191 202.178 73.4454C201.731 73.8773 201.198 74.2103 200.614 74.4226C199.951 74.6588 199.251 74.7741 198.548 74.763C197.833 74.7761 197.122 74.6608 196.447 74.4226C195.858 74.2104 195.32 73.8776 194.866 73.4454C194.431 73.0183 194.092 72.5032 193.871 71.9345C193.641 71.3078 193.526 70.6446 193.531 69.9768C193.522 69.3041 193.643 68.6361 193.888 68.0097C194.112 67.4387 194.454 66.9213 194.891 66.4912C195.342 66.0587 195.878 65.725 196.464 65.5115C197.13 65.2742 197.833 65.1575 198.539 65.1668C199.251 65.1568 199.96 65.2735 200.631 65.5115C201.221 65.7229 201.76 66.0568 202.212 66.4912C202.644 66.9222 202.98 67.4397 203.199 68.0097C203.434 68.6383 203.549 69.3056 203.539 69.9768ZM219.167 74.769C218.672 74.7757 218.179 74.7243 217.696 74.6158C217.295 74.5301 216.908 74.3867 216.548 74.1902C216.232 74.0161 215.947 73.7899 215.706 73.5211C215.479 73.2693 215.296 72.9817 215.162 72.6699C215.056 72.4273 214.981 72.1718 214.941 71.9098C214.896 71.6113 214.873 71.3096 214.873 71.0076V65.4085H216.591V70.994C216.58 71.4288 216.661 71.861 216.829 72.2622C217.008 72.6499 217.31 72.9679 217.688 73.167C218.155 73.4072 218.676 73.5224 219.201 73.5016C219.749 73.5256 220.293 73.3987 220.774 73.1347C221.154 72.9089 221.45 72.5644 221.616 72.1541C221.759 71.7847 221.826 71.39 221.812 70.994V65.4043H223.529V71.0127C223.532 71.3004 223.512 71.5878 223.47 71.8724C223.43 72.1231 223.364 72.3689 223.274 72.6061C223.142 72.9238 222.958 73.2174 222.73 73.4752C222.48 73.7503 222.187 73.9829 221.862 74.1638C221.491 74.367 221.093 74.5171 220.681 74.6098C220.184 74.7199 219.676 74.7724 219.167 74.7664V74.769ZM241.028 74.5494C240.808 74.6163 240.584 74.6647 240.356 74.694C239.995 74.7414 239.632 74.7664 239.268 74.769C238.78 74.7774 238.294 74.7181 237.822 74.5928C237.454 74.4922 237.11 74.3186 236.81 74.0821C236.544 73.8701 236.336 73.5935 236.207 73.2785C236.067 72.948 235.998 72.5921 236.003 72.2333V66.6802H233.971V65.4034H236.003V62.9077H237.72V65.406H240.875V66.6827H237.72V72.0026C237.716 72.2039 237.754 72.4039 237.831 72.5899C237.9 72.7712 238.014 72.9317 238.162 73.0564C238.334 73.1987 238.534 73.3033 238.749 73.3637C239.025 73.445 239.312 73.4829 239.599 73.476C239.841 73.4752 240.083 73.4585 240.322 73.4258C240.56 73.3987 240.795 73.3572 241.028 73.3015V74.5502V74.5494ZM252.201 74.5298V65.4068H253.918V74.5298H252.201ZM252.15 63.2823V61.6208H253.961V63.2823H252.15ZM267.217 70.0253C267.197 70.6253 267.298 71.223 267.514 71.783C267.684 72.1915 267.946 72.555 268.28 72.8453C268.571 73.091 268.914 73.2678 269.283 73.3628C269.619 73.4526 269.964 73.5001 270.312 73.5041C271.319 73.5085 272.292 73.1381 273.041 72.4648V67.6914C272.919 67.5495 272.785 67.4179 272.642 67.2981C272.458 67.1411 272.258 67.0037 272.046 66.8879C271.804 66.7548 271.547 66.6492 271.281 66.5729C270.522 66.3611 269.714 66.4087 268.985 66.7083C268.607 66.874 268.272 67.1254 268.007 67.4428C267.735 67.7731 267.535 68.1571 267.421 68.5698C267.28 69.042 267.211 69.5326 267.217 70.0253ZM265.423 70.1505C265.404 69.394 265.537 68.6414 265.814 67.9374C266.056 67.354 266.415 66.8263 266.868 66.3865C267.302 65.981 267.814 65.6688 268.373 65.4689C268.932 65.2667 269.522 65.1644 270.116 65.1668C270.518 65.1654 270.918 65.2161 271.307 65.3174C271.611 65.3996 271.905 65.5176 272.182 65.669C272.381 65.7825 272.566 65.9179 272.735 66.0724C272.858 66.1841 272.969 66.3082 273.067 66.4427H273.109L273.466 65.4068H274.759V78.9951H273.041V73.6846H273.016C272.636 74.0419 272.187 74.3184 271.698 74.4974C271.145 74.6867 270.564 74.7786 269.98 74.769C269.661 74.7667 269.342 74.7382 269.028 74.6838C268.678 74.6233 268.336 74.5257 268.007 74.3928C267.66 74.2517 267.332 74.0678 267.03 73.8454C266.709 73.608 266.43 73.3186 266.205 72.9891C265.954 72.6154 265.761 72.2052 265.635 71.7728C265.484 71.2457 265.412 70.6988 265.423 70.1505ZM290.889 74.769C290.394 74.7757 289.9 74.7243 289.418 74.6158C289.016 74.5301 288.63 74.3867 288.27 74.1902C287.954 74.0161 287.669 73.7899 287.428 73.5211C287.204 73.2671 287.02 72.98 286.884 72.6699C286.777 72.4273 286.703 72.1718 286.663 71.9098C286.617 71.6113 286.594 71.3096 286.595 71.0076V65.4085H288.312V70.994C288.302 71.4288 288.383 71.861 288.55 72.2622C288.73 72.6499 289.032 72.9679 289.409 73.167C289.877 73.4062 290.398 73.5214 290.923 73.5016C291.471 73.5268 292.015 73.3998 292.496 73.1347C292.878 72.9091 293.177 72.5649 293.346 72.1541C293.482 71.783 293.545 71.3891 293.533 70.994V65.4043H295.251V71.0127C295.253 71.3004 295.233 71.5878 295.191 71.8724C295.155 72.1239 295.09 72.3702 294.996 72.6061C294.863 72.9238 294.679 73.2174 294.451 73.4752C294.205 73.7502 293.914 73.9828 293.593 74.1638C293.221 74.3656 292.823 74.5156 292.411 74.6098C291.911 74.7194 291.4 74.772 290.889 74.7664V74.769ZM311.321 66.4427C310.949 66.4396 310.579 66.5084 310.233 66.6453C309.906 66.77 309.606 66.956 309.348 67.1934C309.097 67.4241 308.89 67.6983 308.736 68.0029C308.581 68.3138 308.482 68.6504 308.447 68.9963H313.778C313.782 68.6549 313.728 68.3155 313.617 67.9927C313.515 67.6934 313.352 67.418 313.141 67.1832C312.93 66.9464 312.668 66.7605 312.375 66.6393C312.041 66.5017 311.682 66.4348 311.321 66.4427ZM312.265 73.4752C312.789 73.479 313.312 73.4383 313.829 73.3535C314.304 73.2726 314.773 73.1589 315.232 73.013V74.2523C314.781 74.4321 314.31 74.5598 313.829 74.6328C313.239 74.7269 312.642 74.7728 312.044 74.7698C311.328 74.7745 310.614 74.6911 309.918 74.5213C309.292 74.3709 308.702 74.0966 308.183 73.7144C307.678 73.334 307.275 72.8339 307.01 72.2588C306.711 71.5768 306.566 70.8372 306.585 70.0926C306.565 69.3513 306.701 68.614 306.985 67.9289C307.227 67.3487 307.589 66.8265 308.047 66.3967C308.489 65.9869 309.01 65.6722 309.578 65.4723C310.16 65.2681 310.772 65.1648 311.389 65.1668C311.952 65.1617 312.512 65.248 313.047 65.4221C313.55 65.5837 314.01 65.8586 314.391 66.2257C314.787 66.6249 315.091 67.1055 315.283 67.6344C315.512 68.302 315.621 69.0048 315.606 69.7104V69.907C315.606 69.9623 315.606 70.0875 315.598 70.2773H308.362C308.347 70.7892 308.452 71.2977 308.668 71.7617C308.856 72.1556 309.14 72.4961 309.493 72.7525C309.867 73.0145 310.289 73.2015 310.734 73.3032C311.236 73.4218 311.75 73.4804 312.265 73.4777V73.4752Z" fill="#D2AB67"/>
</svg>
