<svg width="35" height="35" viewBox="0 0 35 35" fill="none" xmlns="http://www.w3.org/2000/svg">
<path d="M17.5 0C10.2607 0 4.375 5.88574 4.375 13.125C4.375 22.8047 16.4814 34.3164 17.001 34.8018C17.1445 34.9316 17.3223 35 17.5 35C17.6777 35 17.8623 34.9316 17.999 34.8018C18.5186 34.3164 30.625 22.8047 30.625 13.125C30.625 5.88574 24.7393 0 17.5 0ZM17.5 20.4189C13.4805 20.4189 10.2061 17.1445 10.2061 13.125C10.2061 9.10547 13.4805 5.83105 17.5 5.83105C21.5195 5.83105 24.7939 9.10547 24.7939 13.125C24.7939 17.1445 21.5195 20.4189 17.5 20.4189Z" fill="#D2AB67"/>
</svg>
